<svg xmlns="http://www.w3.org/2000/svg" viewBox="0 0 64 64" width="64" height="64" role="img" aria-hidden="true">
  <g fill="none">
    <circle cx="32" cy="32" r="30" stroke="#000000" stroke-width="4" />
    <path fill="#000000" d="M48 40c0-8-4-12-8-12-3 0-4 3-6 3s-3-3-6-3c-4 0-8 4-8 12 0 7 4 12 8 12 3 0 4-3 6-3s3 3 6 3c4 0 8-5 8-12zM32 53c-1 0-2-1-2-2 0-1 1-2 2-2s2 1 2 2c0 1-1 2-2 2zm10-9c-2 0-4-1-5-3-1 2-3 3-5 3s-4-1-5-3c-1 2-3 3-5 3-2 0-3-2-3-4 0-2 1-3 2-4 1-1 2-2 2-3 0-3 0-6 1-8 0-2 2-3 4-3 2 0 4 1 4 3 0 2-2 3-2 5s2 3 2 5c0 3-2 4-3 4z" />
  </g>
</svg>
